<mxfile host="app.diagrams.net" modified="2023-07-03T19:49:19.333Z" agent="Mozilla/5.0 (Windows NT 10.0; Win64; x64) AppleWebKit/537.36 (KHTML, like Gecko) Chrome/113.0.0.0 Safari/537.36 OPR/99.0.0.0" etag="AH9vg-PNmB9xxlCYNAd4" version="21.5.2" type="google">
  <diagram name="PÃ¡gina-1" id="HwNDW6-BRFzMTwh4lcAJ">
    <mxGraphModel dx="2684" dy="1011" grid="1" gridSize="10" guides="1" tooltips="1" connect="1" arrows="1" fold="1" page="1" pageScale="1" pageWidth="827" pageHeight="1169" math="0" shadow="0">
      <root>
        <mxCell id="0" />
        <mxCell id="1" parent="0" />
        <mxCell id="0Z8mvQobNW5vNAzwE-Vr-121" style="edgeStyle=orthogonalEdgeStyle;rounded=0;orthogonalLoop=1;jettySize=auto;html=1;entryX=0.203;entryY=0.994;entryDx=0;entryDy=0;entryPerimeter=0;endArrow=ERmandOne;endFill=0;startArrow=ERoneToMany;startFill=0;" parent="1" source="sXxlykcyUaRIRWlkj6gS-33" target="sXxlykcyUaRIRWlkj6gS-85" edge="1">
          <mxGeometry relative="1" as="geometry" />
        </mxCell>
        <mxCell id="sXxlykcyUaRIRWlkj6gS-33" value="hogar" style="swimlane;childLayout=stackLayout;horizontal=1;startSize=50;horizontalStack=0;rounded=1;fontSize=14;fontStyle=0;strokeWidth=2;resizeParent=0;resizeLast=1;shadow=0;dashed=0;align=center;arcSize=4;whiteSpace=wrap;html=1;" parent="1" vertex="1">
          <mxGeometry x="260" y="655" width="326" height="305" as="geometry" />
        </mxCell>
        <mxCell id="sXxlykcyUaRIRWlkj6gS-34" value="id_hogar&lt;br&gt;cantidad_cuartos&lt;br&gt;cuartos_dormitorios&lt;br&gt;cuartos_negocios&lt;br&gt;cuarto_cocina&lt;br&gt;parentesco_propietario&lt;br&gt;FK TIPO_COCINA_id_tipoCocina&lt;br&gt;FK BASURA_id_basura&lt;br&gt;FK TIPO_HOGAR_id_tipoHogar&lt;br&gt;FK HOGAR_MATERIAL_id_hogarMaterial&lt;br&gt;FK COSTO_HOGAR_id_costoHogar&lt;br&gt;FK VEHICULOS_id_Vehiculos&lt;br&gt;FK SERVICIO_HIGIENICO_id_servicioHigiencio&lt;br&gt;PARENTESCO_PROPIETARIO_id_parentescoPropietario&lt;br&gt;FK ESTADO_MATERIAL_id_estado_material&lt;br&gt;FK Persona_id_Persona&lt;br&gt;FK VIVIENDA_id_vivienda" style="align=left;strokeColor=none;fillColor=none;spacingLeft=4;fontSize=12;verticalAlign=top;resizable=0;rotatable=0;part=1;html=1;" parent="sXxlykcyUaRIRWlkj6gS-33" vertex="1">
          <mxGeometry y="50" width="326" height="255" as="geometry" />
        </mxCell>
        <mxCell id="sXxlykcyUaRIRWlkj6gS-41" value="estado_paredes" style="swimlane;childLayout=stackLayout;horizontal=1;startSize=50;horizontalStack=0;rounded=1;fontSize=14;fontStyle=0;strokeWidth=2;resizeParent=0;resizeLast=1;shadow=0;dashed=0;align=center;arcSize=4;whiteSpace=wrap;html=1;" parent="1" vertex="1">
          <mxGeometry x="1120" y="655" width="190" height="110" as="geometry" />
        </mxCell>
        <mxCell id="sXxlykcyUaRIRWlkj6gS-42" value="id_tipoHogaid_estadoParedesr&lt;br&gt;descripcion_estadosParedes" style="align=left;strokeColor=none;fillColor=none;spacingLeft=4;fontSize=12;verticalAlign=top;resizable=0;rotatable=0;part=1;html=1;" parent="sXxlykcyUaRIRWlkj6gS-41" vertex="1">
          <mxGeometry y="50" width="190" height="60" as="geometry" />
        </mxCell>
        <mxCell id="sXxlykcyUaRIRWlkj6gS-43" value="estado_techo" style="swimlane;childLayout=stackLayout;horizontal=1;startSize=50;horizontalStack=0;rounded=1;fontSize=14;fontStyle=0;strokeWidth=2;resizeParent=0;resizeLast=1;shadow=0;dashed=0;align=center;arcSize=4;whiteSpace=wrap;html=1;" parent="1" vertex="1">
          <mxGeometry x="1120" y="490" width="190" height="110" as="geometry" />
        </mxCell>
        <mxCell id="sXxlykcyUaRIRWlkj6gS-44" value="id_estadoTecho&lt;br&gt;descripcion_estadoTecho" style="align=left;strokeColor=none;fillColor=none;spacingLeft=4;fontSize=12;verticalAlign=top;resizable=0;rotatable=0;part=1;html=1;" parent="sXxlykcyUaRIRWlkj6gS-43" vertex="1">
          <mxGeometry y="50" width="190" height="60" as="geometry" />
        </mxCell>
        <mxCell id="sXxlykcyUaRIRWlkj6gS-45" value="estado_piso" style="swimlane;childLayout=stackLayout;horizontal=1;startSize=50;horizontalStack=0;rounded=1;fontSize=14;fontStyle=0;strokeWidth=2;resizeParent=0;resizeLast=1;shadow=0;dashed=0;align=center;arcSize=4;whiteSpace=wrap;html=1;" parent="1" vertex="1">
          <mxGeometry x="1120" y="347.5" width="190" height="110" as="geometry" />
        </mxCell>
        <mxCell id="sXxlykcyUaRIRWlkj6gS-46" value="id_estadoPiso&lt;br&gt;descripcion_estadoPiso" style="align=left;strokeColor=none;fillColor=none;spacingLeft=4;fontSize=12;verticalAlign=top;resizable=0;rotatable=0;part=1;html=1;" parent="sXxlykcyUaRIRWlkj6gS-45" vertex="1">
          <mxGeometry y="50" width="190" height="60" as="geometry" />
        </mxCell>
        <mxCell id="sXxlykcyUaRIRWlkj6gS-47" value="material_paredes" style="swimlane;childLayout=stackLayout;horizontal=1;startSize=50;horizontalStack=0;rounded=1;fontSize=14;fontStyle=0;strokeWidth=2;resizeParent=0;resizeLast=1;shadow=0;dashed=0;align=center;arcSize=4;whiteSpace=wrap;html=1;" parent="1" vertex="1">
          <mxGeometry x="1020" y="120" width="190" height="110" as="geometry" />
        </mxCell>
        <mxCell id="sXxlykcyUaRIRWlkj6gS-48" value="id_materialParedes&lt;br&gt;descripcion_materialParedes" style="align=left;strokeColor=none;fillColor=none;spacingLeft=4;fontSize=12;verticalAlign=top;resizable=0;rotatable=0;part=1;html=1;" parent="sXxlykcyUaRIRWlkj6gS-47" vertex="1">
          <mxGeometry y="50" width="190" height="60" as="geometry" />
        </mxCell>
        <mxCell id="sXxlykcyUaRIRWlkj6gS-49" value="material_techo" style="swimlane;childLayout=stackLayout;horizontal=1;startSize=50;horizontalStack=0;rounded=1;fontSize=14;fontStyle=0;strokeWidth=2;resizeParent=0;resizeLast=1;shadow=0;dashed=0;align=center;arcSize=4;whiteSpace=wrap;html=1;" parent="1" vertex="1">
          <mxGeometry x="740" y="120" width="190" height="110" as="geometry" />
        </mxCell>
        <mxCell id="sXxlykcyUaRIRWlkj6gS-50" value="id_materialTecho&lt;br&gt;descripcion_materialTecho" style="align=left;strokeColor=none;fillColor=none;spacingLeft=4;fontSize=12;verticalAlign=top;resizable=0;rotatable=0;part=1;html=1;" parent="sXxlykcyUaRIRWlkj6gS-49" vertex="1">
          <mxGeometry y="50" width="190" height="60" as="geometry" />
        </mxCell>
        <mxCell id="sXxlykcyUaRIRWlkj6gS-53" value="material_piso" style="swimlane;childLayout=stackLayout;horizontal=1;startSize=50;horizontalStack=0;rounded=1;fontSize=14;fontStyle=0;strokeWidth=2;resizeParent=0;resizeLast=1;shadow=0;dashed=0;align=center;arcSize=4;whiteSpace=wrap;html=1;" parent="1" vertex="1">
          <mxGeometry x="470" y="120" width="190" height="110" as="geometry" />
        </mxCell>
        <mxCell id="sXxlykcyUaRIRWlkj6gS-54" value="id_materialPiso&lt;br&gt;descripcion_materialPiso" style="align=left;strokeColor=none;fillColor=none;spacingLeft=4;fontSize=12;verticalAlign=top;resizable=0;rotatable=0;part=1;html=1;" parent="sXxlykcyUaRIRWlkj6gS-53" vertex="1">
          <mxGeometry y="50" width="190" height="60" as="geometry" />
        </mxCell>
        <mxCell id="sXxlykcyUaRIRWlkj6gS-57" value="estado_material" style="swimlane;childLayout=stackLayout;horizontal=1;startSize=50;horizontalStack=0;rounded=1;fontSize=14;fontStyle=0;strokeWidth=2;resizeParent=0;resizeLast=1;shadow=0;dashed=0;align=center;arcSize=4;whiteSpace=wrap;html=1;" parent="1" vertex="1">
          <mxGeometry x="685" y="545" width="265" height="130" as="geometry" />
        </mxCell>
        <mxCell id="sXxlykcyUaRIRWlkj6gS-58" value="id_estado_material&lt;br&gt;FK&amp;nbsp;ESTADO_PISO_id_estadoPiso&lt;br&gt;FK&amp;nbsp;ESTADO_TECHO_id_estadoTecho&lt;br&gt;FK&amp;nbsp;ESTADO_PAREDES_id_estadoParedes" style="align=left;strokeColor=none;fillColor=none;spacingLeft=4;fontSize=12;verticalAlign=top;resizable=0;rotatable=0;part=1;html=1;" parent="sXxlykcyUaRIRWlkj6gS-57" vertex="1">
          <mxGeometry y="50" width="265" height="80" as="geometry" />
        </mxCell>
        <mxCell id="sXxlykcyUaRIRWlkj6gS-59" value="basura" style="swimlane;childLayout=stackLayout;horizontal=1;startSize=50;horizontalStack=0;rounded=1;fontSize=14;fontStyle=0;strokeWidth=2;resizeParent=0;resizeLast=1;shadow=0;dashed=0;align=center;arcSize=4;whiteSpace=wrap;html=1;" parent="1" vertex="1">
          <mxGeometry x="850" y="740" width="150" height="100" as="geometry" />
        </mxCell>
        <mxCell id="sXxlykcyUaRIRWlkj6gS-60" value="id_basura&lt;br&gt;descripcion_basura" style="align=left;strokeColor=none;fillColor=none;spacingLeft=4;fontSize=12;verticalAlign=top;resizable=0;rotatable=0;part=1;html=1;" parent="sXxlykcyUaRIRWlkj6gS-59" vertex="1">
          <mxGeometry y="50" width="150" height="50" as="geometry" />
        </mxCell>
        <mxCell id="sXxlykcyUaRIRWlkj6gS-66" value="gasto_abastecimiento" style="swimlane;childLayout=stackLayout;horizontal=1;startSize=50;horizontalStack=0;rounded=1;fontSize=14;fontStyle=0;strokeWidth=2;resizeParent=0;resizeLast=1;shadow=0;dashed=0;align=center;arcSize=4;whiteSpace=wrap;html=1;" parent="1" vertex="1">
          <mxGeometry x="1080" y="1120" width="200" height="190" as="geometry" />
        </mxCell>
        <mxCell id="sXxlykcyUaRIRWlkj6gS-67" value="id_gastoAbastecimiento&lt;br&gt;gasto_super&lt;br&gt;gasto_diesel&lt;br&gt;gasto_ecopais&lt;br&gt;gasto_extra&lt;br&gt;gasto_electricidad&lt;br&gt;gasto_gas" style="align=left;strokeColor=none;fillColor=none;spacingLeft=4;fontSize=12;verticalAlign=top;resizable=0;rotatable=0;part=1;html=1;" parent="sXxlykcyUaRIRWlkj6gS-66" vertex="1">
          <mxGeometry y="50" width="200" height="140" as="geometry" />
        </mxCell>
        <mxCell id="sXxlykcyUaRIRWlkj6gS-68" value="vehiculos" style="swimlane;childLayout=stackLayout;horizontal=1;startSize=50;horizontalStack=0;rounded=1;fontSize=14;fontStyle=0;strokeWidth=2;resizeParent=0;resizeLast=1;shadow=0;dashed=0;align=center;arcSize=4;whiteSpace=wrap;html=1;" parent="1" vertex="1">
          <mxGeometry x="680" y="1120" width="300" height="150" as="geometry" />
        </mxCell>
        <mxCell id="sXxlykcyUaRIRWlkj6gS-69" value="id_Vehiculos&lt;br&gt;tiene_vehiuclo&lt;br&gt;num_vehiculo&lt;br&gt;tiene_moto&lt;br&gt;num_moto&lt;br&gt;FK&amp;nbsp;TIPO_ABASTECIMIENTO_id_tipoAbastecimiento&lt;br&gt;" style="align=left;strokeColor=none;fillColor=none;spacingLeft=4;fontSize=12;verticalAlign=top;resizable=0;rotatable=0;part=1;html=1;" parent="sXxlykcyUaRIRWlkj6gS-68" vertex="1">
          <mxGeometry y="50" width="300" height="100" as="geometry" />
        </mxCell>
        <mxCell id="sXxlykcyUaRIRWlkj6gS-72" value="tipo_abastecimiento" style="swimlane;childLayout=stackLayout;horizontal=1;startSize=50;horizontalStack=0;rounded=1;fontSize=14;fontStyle=0;strokeWidth=2;resizeParent=0;resizeLast=1;shadow=0;dashed=0;align=center;arcSize=4;whiteSpace=wrap;html=1;" parent="1" vertex="1">
          <mxGeometry x="670" y="1350" width="320" height="180" as="geometry" />
        </mxCell>
        <mxCell id="sXxlykcyUaRIRWlkj6gS-73" value="id_tipoAbastecimiento&lt;br&gt;abastecimiento_super&lt;br&gt;abastecimiento_diesel&lt;br&gt;abastecimiento_ecopais&lt;br&gt;abastecimiento_extra&lt;br&gt;abastecimiento_electricidad&lt;br&gt;abastecimiento_gas&lt;br&gt;FK&amp;nbsp;GASTO_ABASTECIMIENTO_id_gastoAbastecimiento" style="align=left;strokeColor=none;fillColor=none;spacingLeft=4;fontSize=12;verticalAlign=top;resizable=0;rotatable=0;part=1;html=1;" parent="sXxlykcyUaRIRWlkj6gS-72" vertex="1">
          <mxGeometry y="50" width="320" height="130" as="geometry" />
        </mxCell>
        <mxCell id="sXxlykcyUaRIRWlkj6gS-74" value="costo_hogar" style="swimlane;childLayout=stackLayout;horizontal=1;startSize=50;horizontalStack=0;rounded=1;fontSize=14;fontStyle=0;strokeWidth=2;resizeParent=0;resizeLast=1;shadow=0;dashed=0;align=center;arcSize=4;whiteSpace=wrap;html=1;" parent="1" vertex="1">
          <mxGeometry x="422" y="1020" width="164" height="140" as="geometry" />
        </mxCell>
        <mxCell id="sXxlykcyUaRIRWlkj6gS-75" value="id_costoHogar&lt;br&gt;valor_mensualArriendo&lt;br&gt;valor_incluyeAgua&lt;br&gt;valor_incluyeLuz" style="align=left;strokeColor=none;fillColor=none;spacingLeft=4;fontSize=12;verticalAlign=top;resizable=0;rotatable=0;part=1;html=1;" parent="sXxlykcyUaRIRWlkj6gS-74" vertex="1">
          <mxGeometry y="50" width="164" height="90" as="geometry" />
        </mxCell>
        <mxCell id="sXxlykcyUaRIRWlkj6gS-76" value="persona" style="swimlane;childLayout=stackLayout;horizontal=1;startSize=50;horizontalStack=0;rounded=1;fontSize=14;fontStyle=0;strokeWidth=2;resizeParent=0;resizeLast=1;shadow=0;dashed=0;align=center;arcSize=4;whiteSpace=wrap;html=1;" parent="1" vertex="1">
          <mxGeometry y="1169" width="290" height="191" as="geometry" />
        </mxCell>
        <mxCell id="sXxlykcyUaRIRWlkj6gS-77" value="id_Persona&lt;br&gt;sexo&lt;br&gt;edad&lt;br&gt;FK&amp;nbsp;ACTIVIDAD_HOGAR_id_actividad_hogar&lt;br&gt;FK&amp;nbsp;NIVEL_INSTRUCCION_id_nivel_instruccion&lt;br&gt;FK&amp;nbsp;ESTADO_CIVIL_id_estado_civil&lt;br&gt;FK HOGAR_id_hogar" style="align=left;strokeColor=none;fillColor=none;spacingLeft=4;fontSize=12;verticalAlign=top;resizable=0;rotatable=0;part=1;html=1;" parent="sXxlykcyUaRIRWlkj6gS-76" vertex="1">
          <mxGeometry y="50" width="290" height="141" as="geometry" />
        </mxCell>
        <mxCell id="0Z8mvQobNW5vNAzwE-Vr-40" style="edgeStyle=orthogonalEdgeStyle;rounded=0;orthogonalLoop=1;jettySize=auto;html=1;entryX=1;entryY=0.333;entryDx=0;entryDy=0;entryPerimeter=0;startArrow=ERmandOne;startFill=0;endArrow=ERmandOne;endFill=0;" parent="1" source="sXxlykcyUaRIRWlkj6gS-78" target="sXxlykcyUaRIRWlkj6gS-77" edge="1">
          <mxGeometry relative="1" as="geometry" />
        </mxCell>
        <mxCell id="sXxlykcyUaRIRWlkj6gS-78" value="estado_civil" style="swimlane;childLayout=stackLayout;horizontal=1;startSize=50;horizontalStack=0;rounded=1;fontSize=14;fontStyle=0;strokeWidth=2;resizeParent=0;resizeLast=1;shadow=0;dashed=0;align=center;arcSize=4;whiteSpace=wrap;html=1;" parent="1" vertex="1">
          <mxGeometry x="440" y="1450" width="160" height="100" as="geometry" />
        </mxCell>
        <mxCell id="sXxlykcyUaRIRWlkj6gS-79" value="id_estado_civil&lt;br&gt;descripcion_estadoCivil" style="align=left;strokeColor=none;fillColor=none;spacingLeft=4;fontSize=12;verticalAlign=top;resizable=0;rotatable=0;part=1;html=1;" parent="sXxlykcyUaRIRWlkj6gS-78" vertex="1">
          <mxGeometry y="50" width="160" height="50" as="geometry" />
        </mxCell>
        <mxCell id="0Z8mvQobNW5vNAzwE-Vr-41" style="edgeStyle=orthogonalEdgeStyle;rounded=0;orthogonalLoop=1;jettySize=auto;html=1;entryX=0.5;entryY=1;entryDx=0;entryDy=0;startArrow=ERmandOne;startFill=0;endArrow=ERmandOne;endFill=0;" parent="1" source="sXxlykcyUaRIRWlkj6gS-80" target="sXxlykcyUaRIRWlkj6gS-77" edge="1">
          <mxGeometry relative="1" as="geometry" />
        </mxCell>
        <mxCell id="sXxlykcyUaRIRWlkj6gS-80" value="nivel_instruccion" style="swimlane;childLayout=stackLayout;horizontal=1;startSize=50;horizontalStack=0;rounded=1;fontSize=14;fontStyle=0;strokeWidth=2;resizeParent=0;resizeLast=1;shadow=0;dashed=0;align=center;arcSize=4;whiteSpace=wrap;html=1;" parent="1" vertex="1">
          <mxGeometry x="150" y="1470" width="160" height="100" as="geometry" />
        </mxCell>
        <mxCell id="sXxlykcyUaRIRWlkj6gS-81" value="id_nivel_instruccion&lt;br&gt;descripcion_nivelInstruccion" style="align=left;strokeColor=none;fillColor=none;spacingLeft=4;fontSize=12;verticalAlign=top;resizable=0;rotatable=0;part=1;html=1;" parent="sXxlykcyUaRIRWlkj6gS-80" vertex="1">
          <mxGeometry y="50" width="160" height="50" as="geometry" />
        </mxCell>
        <mxCell id="0Z8mvQobNW5vNAzwE-Vr-42" style="edgeStyle=orthogonalEdgeStyle;rounded=0;orthogonalLoop=1;jettySize=auto;html=1;entryX=0.4;entryY=1;entryDx=0;entryDy=0;entryPerimeter=0;startArrow=ERmandOne;startFill=0;endArrow=ERmandOne;endFill=0;" parent="1" source="sXxlykcyUaRIRWlkj6gS-82" target="sXxlykcyUaRIRWlkj6gS-77" edge="1">
          <mxGeometry relative="1" as="geometry" />
        </mxCell>
        <mxCell id="sXxlykcyUaRIRWlkj6gS-82" value="actividad_hogar" style="swimlane;childLayout=stackLayout;horizontal=1;startSize=50;horizontalStack=0;rounded=1;fontSize=14;fontStyle=0;strokeWidth=2;resizeParent=0;resizeLast=1;shadow=0;dashed=0;align=center;arcSize=4;whiteSpace=wrap;html=1;" parent="1" vertex="1">
          <mxGeometry x="-100" y="1480" width="160" height="100" as="geometry" />
        </mxCell>
        <mxCell id="sXxlykcyUaRIRWlkj6gS-83" value="id_actividad_hogar&lt;br&gt;descripcion_actividadHogar" style="align=left;strokeColor=none;fillColor=none;spacingLeft=4;fontSize=12;verticalAlign=top;resizable=0;rotatable=0;part=1;html=1;" parent="sXxlykcyUaRIRWlkj6gS-82" vertex="1">
          <mxGeometry y="50" width="160" height="50" as="geometry" />
        </mxCell>
        <mxCell id="0Z8mvQobNW5vNAzwE-Vr-77" style="edgeStyle=orthogonalEdgeStyle;rounded=0;orthogonalLoop=1;jettySize=auto;html=1;endArrow=ERmandOne;endFill=0;startArrow=ERoneToMany;startFill=0;" parent="1" source="sXxlykcyUaRIRWlkj6gS-84" target="sXxlykcyUaRIRWlkj6gS-54" edge="1">
          <mxGeometry relative="1" as="geometry" />
        </mxCell>
        <mxCell id="0Z8mvQobNW5vNAzwE-Vr-78" style="edgeStyle=orthogonalEdgeStyle;rounded=0;orthogonalLoop=1;jettySize=auto;html=1;entryX=0.5;entryY=1;entryDx=0;entryDy=0;endArrow=ERmandOne;endFill=0;startArrow=ERoneToMany;startFill=0;" parent="1" source="sXxlykcyUaRIRWlkj6gS-84" target="sXxlykcyUaRIRWlkj6gS-50" edge="1">
          <mxGeometry relative="1" as="geometry">
            <Array as="points">
              <mxPoint x="720" y="284" />
              <mxPoint x="835" y="284" />
            </Array>
          </mxGeometry>
        </mxCell>
        <mxCell id="0Z8mvQobNW5vNAzwE-Vr-79" style="edgeStyle=orthogonalEdgeStyle;rounded=0;orthogonalLoop=1;jettySize=auto;html=1;entryX=0.5;entryY=1;entryDx=0;entryDy=0;endArrow=ERmandOne;endFill=0;startArrow=ERoneToMany;startFill=0;" parent="1" source="sXxlykcyUaRIRWlkj6gS-84" target="sXxlykcyUaRIRWlkj6gS-48" edge="1">
          <mxGeometry relative="1" as="geometry">
            <Array as="points">
              <mxPoint x="750" y="320" />
              <mxPoint x="1115" y="320" />
            </Array>
          </mxGeometry>
        </mxCell>
        <mxCell id="sXxlykcyUaRIRWlkj6gS-84" value="hogar_material" style="swimlane;childLayout=stackLayout;horizontal=1;startSize=50;horizontalStack=0;rounded=1;fontSize=14;fontStyle=0;strokeWidth=2;resizeParent=0;resizeLast=1;shadow=0;dashed=0;align=center;arcSize=4;whiteSpace=wrap;html=1;" parent="1" vertex="1">
          <mxGeometry x="562" y="327.5" width="265" height="130" as="geometry" />
        </mxCell>
        <mxCell id="sXxlykcyUaRIRWlkj6gS-85" value="id_hogarMaterial&lt;br&gt;FK&amp;nbsp;MATERIAL_PISO_id_materialPiso&lt;br&gt;FK&amp;nbsp;MATERIAL_PAREDES_id_materialParedes&lt;br&gt;FK&amp;nbsp;MATERIAL_TECHO_id_materialTecho" style="align=left;strokeColor=none;fillColor=none;spacingLeft=4;fontSize=12;verticalAlign=top;resizable=0;rotatable=0;part=1;html=1;" parent="sXxlykcyUaRIRWlkj6gS-84" vertex="1">
          <mxGeometry y="50" width="265" height="80" as="geometry" />
        </mxCell>
        <mxCell id="sXxlykcyUaRIRWlkj6gS-88" value="alumbrado" style="swimlane;childLayout=stackLayout;horizontal=1;startSize=50;horizontalStack=0;rounded=1;fontSize=14;fontStyle=0;strokeWidth=2;resizeParent=0;resizeLast=1;shadow=0;dashed=0;align=center;arcSize=4;whiteSpace=wrap;html=1;" parent="1" vertex="1">
          <mxGeometry x="240" y="430" width="210" height="100" as="geometry" />
        </mxCell>
        <mxCell id="sXxlykcyUaRIRWlkj6gS-89" value="id_alumbrado&lt;br&gt;descripcion_alumbrado" style="align=left;strokeColor=none;fillColor=none;spacingLeft=4;fontSize=12;verticalAlign=top;resizable=0;rotatable=0;part=1;html=1;" parent="sXxlykcyUaRIRWlkj6gS-88" vertex="1">
          <mxGeometry y="50" width="210" height="50" as="geometry" />
        </mxCell>
        <mxCell id="sXxlykcyUaRIRWlkj6gS-90" value="acceso_principal" style="swimlane;childLayout=stackLayout;horizontal=1;startSize=50;horizontalStack=0;rounded=1;fontSize=14;fontStyle=0;strokeWidth=2;resizeParent=0;resizeLast=1;shadow=0;dashed=0;align=center;arcSize=4;whiteSpace=wrap;html=1;" parent="1" vertex="1">
          <mxGeometry x="-80" y="270" width="185" height="90" as="geometry" />
        </mxCell>
        <mxCell id="sXxlykcyUaRIRWlkj6gS-91" value="id_accesoPrincipal&lt;br&gt;descripcion_accesoPrincipal" style="align=left;strokeColor=none;fillColor=none;spacingLeft=4;fontSize=12;verticalAlign=top;resizable=0;rotatable=0;part=1;html=1;" parent="sXxlykcyUaRIRWlkj6gS-90" vertex="1">
          <mxGeometry y="50" width="185" height="40" as="geometry" />
        </mxCell>
        <mxCell id="sXxlykcyUaRIRWlkj6gS-92" value="tenencia vivienda" style="swimlane;childLayout=stackLayout;horizontal=1;startSize=50;horizontalStack=0;rounded=1;fontSize=14;fontStyle=0;strokeWidth=2;resizeParent=0;resizeLast=1;shadow=0;dashed=0;align=center;arcSize=4;whiteSpace=wrap;html=1;" parent="1" vertex="1">
          <mxGeometry x="-325" y="270" width="185" height="90" as="geometry" />
        </mxCell>
        <mxCell id="sXxlykcyUaRIRWlkj6gS-93" value="id_tenciaVivienda&lt;br&gt;descripcion_tenenciaVivienda" style="align=left;strokeColor=none;fillColor=none;spacingLeft=4;fontSize=12;verticalAlign=top;resizable=0;rotatable=0;part=1;html=1;" parent="sXxlykcyUaRIRWlkj6gS-92" vertex="1">
          <mxGeometry y="50" width="185" height="40" as="geometry" />
        </mxCell>
        <mxCell id="0Z8mvQobNW5vNAzwE-Vr-11" style="edgeStyle=orthogonalEdgeStyle;rounded=0;orthogonalLoop=1;jettySize=auto;html=1;entryX=0;entryY=0.5;entryDx=0;entryDy=0;startArrow=ERoneToMany;startFill=0;endArrow=ERmandOne;endFill=0;" parent="1" source="sXxlykcyUaRIRWlkj6gS-94" target="0Z8mvQobNW5vNAzwE-Vr-7" edge="1">
          <mxGeometry relative="1" as="geometry" />
        </mxCell>
        <mxCell id="0Z8mvQobNW5vNAzwE-Vr-13" style="edgeStyle=orthogonalEdgeStyle;rounded=0;orthogonalLoop=1;jettySize=auto;html=1;entryX=0.5;entryY=1;entryDx=0;entryDy=0;startArrow=ERmandOne;startFill=0;endArrow=ERmandOne;endFill=0;" parent="1" source="sXxlykcyUaRIRWlkj6gS-94" target="sXxlykcyUaRIRWlkj6gS-93" edge="1">
          <mxGeometry relative="1" as="geometry">
            <Array as="points">
              <mxPoint x="-80" y="458" />
              <mxPoint x="-233" y="458" />
            </Array>
          </mxGeometry>
        </mxCell>
        <mxCell id="0Z8mvQobNW5vNAzwE-Vr-14" style="edgeStyle=orthogonalEdgeStyle;rounded=0;orthogonalLoop=1;jettySize=auto;html=1;entryX=0.5;entryY=1;entryDx=0;entryDy=0;startArrow=ERmandOne;startFill=0;endArrow=ERmandOne;endFill=0;" parent="1" source="sXxlykcyUaRIRWlkj6gS-94" target="sXxlykcyUaRIRWlkj6gS-91" edge="1">
          <mxGeometry relative="1" as="geometry">
            <Array as="points">
              <mxPoint x="-55" y="453" />
              <mxPoint x="12" y="453" />
            </Array>
          </mxGeometry>
        </mxCell>
        <mxCell id="hljfWpp31FLam6ULAvDE-1" style="edgeStyle=orthogonalEdgeStyle;rounded=0;orthogonalLoop=1;jettySize=auto;html=1;entryX=-0.01;entryY=0.156;entryDx=0;entryDy=0;entryPerimeter=0;endArrow=ERoneToMany;endFill=0;startArrow=ERmandOne;startFill=0;" edge="1" parent="1" source="sXxlykcyUaRIRWlkj6gS-94" target="sXxlykcyUaRIRWlkj6gS-34">
          <mxGeometry relative="1" as="geometry">
            <Array as="points">
              <mxPoint x="175" y="690" />
              <mxPoint x="175" y="742" />
            </Array>
          </mxGeometry>
        </mxCell>
        <mxCell id="sXxlykcyUaRIRWlkj6gS-94" value="vivienda" style="swimlane;childLayout=stackLayout;horizontal=1;startSize=50;horizontalStack=0;rounded=1;fontSize=14;fontStyle=0;strokeWidth=2;resizeParent=0;resizeLast=1;shadow=0;dashed=0;align=center;arcSize=4;whiteSpace=wrap;html=1;" parent="1" vertex="1">
          <mxGeometry x="-200" y="545" width="290" height="175" as="geometry" />
        </mxCell>
        <mxCell id="sXxlykcyUaRIRWlkj6gS-95" value="id_vivienda&lt;br&gt;FK&amp;nbsp;ACCESO_PRINCIPAL_id_accesoPrincipal&lt;br&gt;FK&amp;nbsp;TIPO_VIVIENDA_id_tipoVivienda&lt;br&gt;FK&amp;nbsp;TENENCIA_VIVIENDA_id_tenciaVivienda&lt;br&gt;FK&amp;nbsp;HOGAR_id_hogar&lt;br&gt;FK&amp;nbsp;ARRENDAO_id_arrendado&lt;br&gt;FK&amp;nbsp;ALUMBRADO_id_alumbrado" style="align=left;strokeColor=none;fillColor=none;spacingLeft=4;fontSize=12;verticalAlign=top;resizable=0;rotatable=0;part=1;html=1;" parent="sXxlykcyUaRIRWlkj6gS-94" vertex="1">
          <mxGeometry y="50" width="290" height="125" as="geometry" />
        </mxCell>
        <mxCell id="sXxlykcyUaRIRWlkj6gS-98" value="Locacion" style="swimlane;childLayout=stackLayout;horizontal=1;startSize=50;horizontalStack=0;rounded=1;fontSize=14;fontStyle=0;strokeWidth=2;resizeParent=0;resizeLast=1;shadow=0;dashed=0;align=center;arcSize=4;whiteSpace=wrap;html=1;" parent="1" vertex="1">
          <mxGeometry x="-590" y="497" width="290" height="175" as="geometry" />
        </mxCell>
        <mxCell id="sXxlykcyUaRIRWlkj6gS-99" value="id_Locacion&lt;br&gt;factor_expansion&lt;br&gt;unidad_muestreo&lt;br&gt;ciudad&lt;br&gt;conglomeracion&lt;br&gt;estrato&lt;br&gt;area&lt;br&gt;FK TIEMPO_id_tiempo" style="align=left;strokeColor=none;fillColor=none;spacingLeft=4;fontSize=12;verticalAlign=top;resizable=0;rotatable=0;part=1;html=1;" parent="sXxlykcyUaRIRWlkj6gS-98" vertex="1">
          <mxGeometry y="50" width="290" height="125" as="geometry" />
        </mxCell>
        <mxCell id="sXxlykcyUaRIRWlkj6gS-100" value="tipo_instalacion_sanitaria" style="swimlane;childLayout=stackLayout;horizontal=1;startSize=50;horizontalStack=0;rounded=1;fontSize=14;fontStyle=0;strokeWidth=2;resizeParent=0;resizeLast=1;shadow=0;dashed=0;align=center;arcSize=4;whiteSpace=wrap;html=1;" parent="1" vertex="1">
          <mxGeometry x="-550" y="770" width="250" height="105" as="geometry" />
        </mxCell>
        <mxCell id="sXxlykcyUaRIRWlkj6gS-101" value="id_tipo_instalacionSanitaria&lt;br&gt;descripcion_tipo_instalacionSanitaria" style="align=left;strokeColor=none;fillColor=none;spacingLeft=4;fontSize=12;verticalAlign=top;resizable=0;rotatable=0;part=1;html=1;" parent="sXxlykcyUaRIRWlkj6gS-100" vertex="1">
          <mxGeometry y="50" width="250" height="55" as="geometry" />
        </mxCell>
        <mxCell id="sXxlykcyUaRIRWlkj6gS-102" value="tiempo" style="swimlane;childLayout=stackLayout;horizontal=1;startSize=50;horizontalStack=0;rounded=1;fontSize=14;fontStyle=0;strokeWidth=2;resizeParent=0;resizeLast=1;shadow=0;dashed=0;align=center;arcSize=4;whiteSpace=wrap;html=1;" parent="1" vertex="1">
          <mxGeometry x="-710" y="335" width="150" height="115" as="geometry" />
        </mxCell>
        <mxCell id="sXxlykcyUaRIRWlkj6gS-103" value="id_tiempo&lt;br&gt;periodo&lt;br&gt;mes" style="align=left;strokeColor=none;fillColor=none;spacingLeft=4;fontSize=12;verticalAlign=top;resizable=0;rotatable=0;part=1;html=1;" parent="sXxlykcyUaRIRWlkj6gS-102" vertex="1">
          <mxGeometry y="50" width="150" height="65" as="geometry" />
        </mxCell>
        <mxCell id="sXxlykcyUaRIRWlkj6gS-104" value="no_tiene_servicio_higienico" style="swimlane;childLayout=stackLayout;horizontal=1;startSize=50;horizontalStack=0;rounded=1;fontSize=14;fontStyle=0;strokeWidth=2;resizeParent=0;resizeLast=1;shadow=0;dashed=0;align=center;arcSize=4;whiteSpace=wrap;html=1;" parent="1" vertex="1">
          <mxGeometry x="-800" y="900" width="250" height="105" as="geometry" />
        </mxCell>
        <mxCell id="sXxlykcyUaRIRWlkj6gS-105" value="id_noTiene_servicioHigienico&lt;br&gt;descripcion_noTiene_servicioHigienico" style="align=left;strokeColor=none;fillColor=none;spacingLeft=4;fontSize=12;verticalAlign=top;resizable=0;rotatable=0;part=1;html=1;" parent="sXxlykcyUaRIRWlkj6gS-104" vertex="1">
          <mxGeometry y="50" width="250" height="55" as="geometry" />
        </mxCell>
        <mxCell id="sXxlykcyUaRIRWlkj6gS-106" value="tipo_servicio_higienico" style="swimlane;childLayout=stackLayout;horizontal=1;startSize=50;horizontalStack=0;rounded=1;fontSize=14;fontStyle=0;strokeWidth=2;resizeParent=0;resizeLast=1;shadow=0;dashed=0;align=center;arcSize=4;whiteSpace=wrap;html=1;" parent="1" vertex="1">
          <mxGeometry x="-800" y="1037.5" width="250" height="105" as="geometry" />
        </mxCell>
        <mxCell id="sXxlykcyUaRIRWlkj6gS-107" value="id_tipo_servicioHigienico&lt;br&gt;descripcion_tipo_servicioHgienico" style="align=left;strokeColor=none;fillColor=none;spacingLeft=4;fontSize=12;verticalAlign=top;resizable=0;rotatable=0;part=1;html=1;" parent="sXxlykcyUaRIRWlkj6gS-106" vertex="1">
          <mxGeometry y="50" width="250" height="55" as="geometry" />
        </mxCell>
        <mxCell id="0Z8mvQobNW5vNAzwE-Vr-18" style="edgeStyle=orthogonalEdgeStyle;rounded=0;orthogonalLoop=1;jettySize=auto;html=1;entryX=1;entryY=0.25;entryDx=0;entryDy=0;startArrow=ERmandOne;startFill=0;endArrow=ERmandOne;endFill=0;" parent="1" source="sXxlykcyUaRIRWlkj6gS-108" target="sXxlykcyUaRIRWlkj6gS-101" edge="1">
          <mxGeometry relative="1" as="geometry" />
        </mxCell>
        <mxCell id="sXxlykcyUaRIRWlkj6gS-108" value="servicio_higienico" style="swimlane;childLayout=stackLayout;horizontal=1;startSize=50;horizontalStack=0;rounded=1;fontSize=14;fontStyle=0;strokeWidth=2;resizeParent=0;resizeLast=1;shadow=0;dashed=0;align=center;arcSize=4;whiteSpace=wrap;html=1;" parent="1" vertex="1">
          <mxGeometry x="-413" y="940" width="423" height="150" as="geometry" />
        </mxCell>
        <mxCell id="sXxlykcyUaRIRWlkj6gS-109" value="id_servicioHigiencio&lt;br&gt;FK&amp;nbsp;TIPO_INSTALACION_SANITARIA_id_tipo_instalacionSanitaria&lt;br&gt;FK&amp;nbsp;NO_TIENE_SERVICIO_HIGIENICO_id_noTiene_servicioHigienico&lt;br&gt;FK&amp;nbsp;TIPO_SERVICIO_HIGIENICO_id_tipo_servicioHigienico&lt;br&gt;FK&amp;nbsp;SERVICIO_AGUA_id_servicioAgua" style="align=left;strokeColor=none;fillColor=none;spacingLeft=4;fontSize=12;verticalAlign=top;resizable=0;rotatable=0;part=1;html=1;" parent="sXxlykcyUaRIRWlkj6gS-108" vertex="1">
          <mxGeometry y="50" width="423" height="100" as="geometry" />
        </mxCell>
        <mxCell id="sXxlykcyUaRIRWlkj6gS-110" value="recibe_agua" style="swimlane;childLayout=stackLayout;horizontal=1;startSize=50;horizontalStack=0;rounded=1;fontSize=14;fontStyle=0;strokeWidth=2;resizeParent=0;resizeLast=1;shadow=0;dashed=0;align=center;arcSize=4;whiteSpace=wrap;html=1;" parent="1" vertex="1">
          <mxGeometry x="-780" y="1194" width="250" height="105" as="geometry" />
        </mxCell>
        <mxCell id="sXxlykcyUaRIRWlkj6gS-111" value="id_recibeAgua&lt;br&gt;descripcion_recibeAgua" style="align=left;strokeColor=none;fillColor=none;spacingLeft=4;fontSize=12;verticalAlign=top;resizable=0;rotatable=0;part=1;html=1;" parent="sXxlykcyUaRIRWlkj6gS-110" vertex="1">
          <mxGeometry y="50" width="250" height="55" as="geometry" />
        </mxCell>
        <mxCell id="sXxlykcyUaRIRWlkj6gS-112" value="servicio_ducha" style="swimlane;childLayout=stackLayout;horizontal=1;startSize=50;horizontalStack=0;rounded=1;fontSize=14;fontStyle=0;strokeWidth=2;resizeParent=0;resizeLast=1;shadow=0;dashed=0;align=center;arcSize=4;whiteSpace=wrap;html=1;" parent="1" vertex="1">
          <mxGeometry x="-790" y="1370" width="250" height="105" as="geometry" />
        </mxCell>
        <mxCell id="sXxlykcyUaRIRWlkj6gS-113" value="id_servicioDucha&lt;br&gt;descripcion_servicioDucha" style="align=left;strokeColor=none;fillColor=none;spacingLeft=4;fontSize=12;verticalAlign=top;resizable=0;rotatable=0;part=1;html=1;" parent="sXxlykcyUaRIRWlkj6gS-112" vertex="1">
          <mxGeometry y="50" width="250" height="55" as="geometry" />
        </mxCell>
        <mxCell id="sXxlykcyUaRIRWlkj6gS-114" value="obtiene_agua" style="swimlane;childLayout=stackLayout;horizontal=1;startSize=50;horizontalStack=0;rounded=1;fontSize=14;fontStyle=0;strokeWidth=2;resizeParent=0;resizeLast=1;shadow=0;dashed=0;align=center;arcSize=4;whiteSpace=wrap;html=1;" parent="1" vertex="1">
          <mxGeometry x="-440" y="1450" width="250" height="105" as="geometry" />
        </mxCell>
        <mxCell id="sXxlykcyUaRIRWlkj6gS-115" value="id_obtieneAgua&lt;br&gt;descripcion_obtieneAgua" style="align=left;strokeColor=none;fillColor=none;spacingLeft=4;fontSize=12;verticalAlign=top;resizable=0;rotatable=0;part=1;html=1;" parent="sXxlykcyUaRIRWlkj6gS-114" vertex="1">
          <mxGeometry y="50" width="250" height="55" as="geometry" />
        </mxCell>
        <mxCell id="0Z8mvQobNW5vNAzwE-Vr-130" style="edgeStyle=orthogonalEdgeStyle;rounded=0;orthogonalLoop=1;jettySize=auto;html=1;entryX=0.5;entryY=1;entryDx=0;entryDy=0;endArrow=ERoneToMany;endFill=0;startArrow=ERmandOne;startFill=0;" parent="1" source="sXxlykcyUaRIRWlkj6gS-116" target="sXxlykcyUaRIRWlkj6gS-109" edge="1">
          <mxGeometry relative="1" as="geometry" />
        </mxCell>
        <mxCell id="sXxlykcyUaRIRWlkj6gS-116" value="servicio_agua" style="swimlane;childLayout=stackLayout;horizontal=1;startSize=50;horizontalStack=0;rounded=1;fontSize=14;fontStyle=0;strokeWidth=2;resizeParent=0;resizeLast=1;shadow=0;dashed=0;align=center;arcSize=4;whiteSpace=wrap;html=1;" parent="1" vertex="1">
          <mxGeometry x="-390" y="1169" width="250" height="155" as="geometry" />
        </mxCell>
        <mxCell id="sXxlykcyUaRIRWlkj6gS-117" value="id_servicioAgua&lt;br&gt;medidor_agua&lt;br&gt;junta_agua&lt;br&gt;FK&amp;nbsp;RECIBE_AGUA_id_recibeAgua&lt;br&gt;FK&amp;nbsp;SERVICIO_DUCHA_id_servicioDucha&lt;br&gt;FK&amp;nbsp;OBTIENE_AGUA_id_obtieneAgua" style="align=left;strokeColor=none;fillColor=none;spacingLeft=4;fontSize=12;verticalAlign=top;resizable=0;rotatable=0;part=1;html=1;" parent="sXxlykcyUaRIRWlkj6gS-116" vertex="1">
          <mxGeometry y="50" width="250" height="105" as="geometry" />
        </mxCell>
        <mxCell id="0Z8mvQobNW5vNAzwE-Vr-6" value="tipo_vivienda" style="swimlane;childLayout=stackLayout;horizontal=1;startSize=35;horizontalStack=0;rounded=1;fontSize=14;fontStyle=0;strokeWidth=2;resizeParent=0;resizeLast=1;shadow=0;dashed=0;align=center;arcSize=4;whiteSpace=wrap;html=1;" parent="1" vertex="1">
          <mxGeometry x="170" y="300" width="160" height="100" as="geometry" />
        </mxCell>
        <mxCell id="0Z8mvQobNW5vNAzwE-Vr-7" value="id_tipoVivienda&lt;br&gt;descripcion_tipoVivienda" style="align=left;strokeColor=none;fillColor=none;spacingLeft=4;fontSize=12;verticalAlign=top;resizable=0;rotatable=0;part=1;html=1;" parent="0Z8mvQobNW5vNAzwE-Vr-6" vertex="1">
          <mxGeometry y="35" width="160" height="65" as="geometry" />
        </mxCell>
        <mxCell id="0Z8mvQobNW5vNAzwE-Vr-12" style="edgeStyle=orthogonalEdgeStyle;rounded=0;orthogonalLoop=1;jettySize=auto;html=1;entryX=0;entryY=0.25;entryDx=0;entryDy=0;endArrow=ERmandOne;endFill=0;startArrow=ERoneToMany;startFill=0;" parent="1" source="sXxlykcyUaRIRWlkj6gS-95" target="sXxlykcyUaRIRWlkj6gS-89" edge="1">
          <mxGeometry relative="1" as="geometry" />
        </mxCell>
        <mxCell id="0Z8mvQobNW5vNAzwE-Vr-19" style="edgeStyle=orthogonalEdgeStyle;rounded=0;orthogonalLoop=1;jettySize=auto;html=1;entryX=1;entryY=0.25;entryDx=0;entryDy=0;startArrow=ERmandOne;startFill=0;endArrow=ERmandOne;endFill=0;" parent="1" source="sXxlykcyUaRIRWlkj6gS-109" target="sXxlykcyUaRIRWlkj6gS-105" edge="1">
          <mxGeometry relative="1" as="geometry">
            <Array as="points">
              <mxPoint x="-461" y="1010" />
              <mxPoint x="-461" y="964" />
            </Array>
          </mxGeometry>
        </mxCell>
        <mxCell id="0Z8mvQobNW5vNAzwE-Vr-20" style="edgeStyle=orthogonalEdgeStyle;rounded=0;orthogonalLoop=1;jettySize=auto;html=1;entryX=1;entryY=0.25;entryDx=0;entryDy=0;startArrow=ERmandOne;startFill=0;endArrow=ERmandOne;endFill=0;" parent="1" source="sXxlykcyUaRIRWlkj6gS-109" target="sXxlykcyUaRIRWlkj6gS-107" edge="1">
          <mxGeometry relative="1" as="geometry" />
        </mxCell>
        <mxCell id="0Z8mvQobNW5vNAzwE-Vr-28" style="edgeStyle=orthogonalEdgeStyle;rounded=0;orthogonalLoop=1;jettySize=auto;html=1;entryX=1;entryY=0.25;entryDx=0;entryDy=0;startArrow=ERmandOne;startFill=0;endArrow=ERmandOne;endFill=0;" parent="1" source="sXxlykcyUaRIRWlkj6gS-117" target="sXxlykcyUaRIRWlkj6gS-111" edge="1">
          <mxGeometry relative="1" as="geometry" />
        </mxCell>
        <mxCell id="0Z8mvQobNW5vNAzwE-Vr-29" style="edgeStyle=orthogonalEdgeStyle;rounded=0;orthogonalLoop=1;jettySize=auto;html=1;entryX=1;entryY=0.25;entryDx=0;entryDy=0;startArrow=ERmandOne;startFill=0;endArrow=ERmandOne;endFill=0;" parent="1" source="sXxlykcyUaRIRWlkj6gS-117" target="sXxlykcyUaRIRWlkj6gS-112" edge="1">
          <mxGeometry relative="1" as="geometry">
            <Array as="points">
              <mxPoint x="-445" y="1290" />
              <mxPoint x="-445" y="1396" />
            </Array>
          </mxGeometry>
        </mxCell>
        <mxCell id="0Z8mvQobNW5vNAzwE-Vr-30" style="edgeStyle=orthogonalEdgeStyle;rounded=0;orthogonalLoop=1;jettySize=auto;html=1;entryX=0.538;entryY=0.011;entryDx=0;entryDy=0;entryPerimeter=0;startArrow=ERmandOne;startFill=0;endArrow=ERmandOne;endFill=0;" parent="1" source="sXxlykcyUaRIRWlkj6gS-117" target="sXxlykcyUaRIRWlkj6gS-114" edge="1">
          <mxGeometry relative="1" as="geometry" />
        </mxCell>
        <mxCell id="0Z8mvQobNW5vNAzwE-Vr-52" style="edgeStyle=orthogonalEdgeStyle;rounded=0;orthogonalLoop=1;jettySize=auto;html=1;entryX=0.5;entryY=0;entryDx=0;entryDy=0;endArrow=ERmandOne;endFill=0;startArrow=ERoneToMany;startFill=0;" parent="1" source="sXxlykcyUaRIRWlkj6gS-34" target="sXxlykcyUaRIRWlkj6gS-74" edge="1">
          <mxGeometry relative="1" as="geometry" />
        </mxCell>
        <mxCell id="0Z8mvQobNW5vNAzwE-Vr-55" style="edgeStyle=orthogonalEdgeStyle;rounded=0;orthogonalLoop=1;jettySize=auto;html=1;entryX=0.5;entryY=0;entryDx=0;entryDy=0;endArrow=ERmandOne;endFill=0;startArrow=ERoneToMany;startFill=0;" parent="1" source="sXxlykcyUaRIRWlkj6gS-69" target="sXxlykcyUaRIRWlkj6gS-72" edge="1">
          <mxGeometry relative="1" as="geometry" />
        </mxCell>
        <mxCell id="0Z8mvQobNW5vNAzwE-Vr-56" style="edgeStyle=orthogonalEdgeStyle;rounded=0;orthogonalLoop=1;jettySize=auto;html=1;entryX=0.55;entryY=1.071;entryDx=0;entryDy=0;entryPerimeter=0;exitX=1.006;exitY=0.185;exitDx=0;exitDy=0;exitPerimeter=0;endArrow=ERmandOne;endFill=0;startArrow=ERoneToMany;startFill=0;" parent="1" source="sXxlykcyUaRIRWlkj6gS-73" target="sXxlykcyUaRIRWlkj6gS-67" edge="1">
          <mxGeometry relative="1" as="geometry">
            <Array as="points">
              <mxPoint x="1190" y="1424" />
            </Array>
          </mxGeometry>
        </mxCell>
        <mxCell id="0Z8mvQobNW5vNAzwE-Vr-61" style="edgeStyle=orthogonalEdgeStyle;rounded=0;orthogonalLoop=1;jettySize=auto;html=1;entryX=0;entryY=0.5;entryDx=0;entryDy=0;endArrow=ERmandOne;endFill=0;startArrow=ERoneToMany;startFill=0;" parent="1" source="sXxlykcyUaRIRWlkj6gS-58" target="sXxlykcyUaRIRWlkj6gS-41" edge="1">
          <mxGeometry relative="1" as="geometry" />
        </mxCell>
        <mxCell id="0Z8mvQobNW5vNAzwE-Vr-69" style="edgeStyle=orthogonalEdgeStyle;rounded=0;orthogonalLoop=1;jettySize=auto;html=1;endArrow=ERmandOne;endFill=0;startArrow=ERoneToMany;startFill=0;" parent="1" source="sXxlykcyUaRIRWlkj6gS-58" target="sXxlykcyUaRIRWlkj6gS-43" edge="1">
          <mxGeometry relative="1" as="geometry">
            <Array as="points">
              <mxPoint x="1035" y="620" />
              <mxPoint x="1035" y="552" />
            </Array>
          </mxGeometry>
        </mxCell>
        <mxCell id="0Z8mvQobNW5vNAzwE-Vr-70" style="edgeStyle=orthogonalEdgeStyle;rounded=0;orthogonalLoop=1;jettySize=auto;html=1;entryX=0;entryY=0.5;entryDx=0;entryDy=0;endArrow=ERmandOne;endFill=0;startArrow=ERoneToMany;startFill=0;" parent="1" source="sXxlykcyUaRIRWlkj6gS-58" target="sXxlykcyUaRIRWlkj6gS-45" edge="1">
          <mxGeometry relative="1" as="geometry">
            <Array as="points">
              <mxPoint x="1010" y="650" />
              <mxPoint x="1010" y="403" />
            </Array>
          </mxGeometry>
        </mxCell>
        <mxCell id="0Z8mvQobNW5vNAzwE-Vr-87" value="tipo_cocina" style="swimlane;childLayout=stackLayout;horizontal=1;startSize=50;horizontalStack=0;rounded=1;fontSize=14;fontStyle=0;strokeWidth=2;resizeParent=0;resizeLast=1;shadow=0;dashed=0;align=center;arcSize=4;whiteSpace=wrap;html=1;" parent="1" vertex="1">
          <mxGeometry x="840" y="960" width="160" height="100" as="geometry" />
        </mxCell>
        <mxCell id="0Z8mvQobNW5vNAzwE-Vr-88" value="id_tipoCocina&lt;br&gt;descripcion_tipoCocina" style="align=left;strokeColor=none;fillColor=none;spacingLeft=4;fontSize=12;verticalAlign=top;resizable=0;rotatable=0;part=1;html=1;" parent="0Z8mvQobNW5vNAzwE-Vr-87" vertex="1">
          <mxGeometry y="50" width="160" height="50" as="geometry" />
        </mxCell>
        <mxCell id="0Z8mvQobNW5vNAzwE-Vr-89" style="edgeStyle=orthogonalEdgeStyle;rounded=0;orthogonalLoop=1;jettySize=auto;html=1;entryX=0.545;entryY=0.013;entryDx=0;entryDy=0;entryPerimeter=0;endArrow=ERmandOne;endFill=0;startArrow=ERoneToMany;startFill=0;" parent="1" source="sXxlykcyUaRIRWlkj6gS-34" target="sXxlykcyUaRIRWlkj6gS-68" edge="1">
          <mxGeometry relative="1" as="geometry">
            <mxPoint x="830" y="1100" as="targetPoint" />
            <Array as="points">
              <mxPoint x="530" y="980" />
              <mxPoint x="790" y="980" />
              <mxPoint x="790" y="1095" />
              <mxPoint x="844" y="1095" />
            </Array>
          </mxGeometry>
        </mxCell>
        <mxCell id="0Z8mvQobNW5vNAzwE-Vr-96" style="edgeStyle=orthogonalEdgeStyle;rounded=0;orthogonalLoop=1;jettySize=auto;html=1;entryX=0;entryY=0.25;entryDx=0;entryDy=0;startArrow=ERmandOne;startFill=0;endArrow=ERmandOne;endFill=0;" parent="1" source="sXxlykcyUaRIRWlkj6gS-34" target="sXxlykcyUaRIRWlkj6gS-60" edge="1">
          <mxGeometry relative="1" as="geometry" />
        </mxCell>
        <mxCell id="0Z8mvQobNW5vNAzwE-Vr-103" value="1" style="edgeLabel;html=1;align=center;verticalAlign=middle;resizable=0;points=[];" parent="0Z8mvQobNW5vNAzwE-Vr-96" connectable="0" vertex="1">
          <mxGeometry x="0.9303" y="2" relative="1" as="geometry">
            <mxPoint as="offset" />
          </mxGeometry>
        </mxCell>
        <mxCell id="0Z8mvQobNW5vNAzwE-Vr-98" style="edgeStyle=orthogonalEdgeStyle;rounded=0;orthogonalLoop=1;jettySize=auto;html=1;entryX=0.5;entryY=0;entryDx=0;entryDy=0;startArrow=ERmandOne;startFill=0;endArrow=ERmandOne;endFill=0;" parent="1" source="sXxlykcyUaRIRWlkj6gS-34" target="0Z8mvQobNW5vNAzwE-Vr-87" edge="1">
          <mxGeometry relative="1" as="geometry">
            <Array as="points">
              <mxPoint x="920" y="890" />
            </Array>
          </mxGeometry>
        </mxCell>
        <mxCell id="0Z8mvQobNW5vNAzwE-Vr-115" style="edgeStyle=orthogonalEdgeStyle;rounded=0;orthogonalLoop=1;jettySize=auto;html=1;entryX=0.338;entryY=1.031;entryDx=0;entryDy=0;entryPerimeter=0;startArrow=ERoneToMany;startFill=0;endArrow=ERmandOne;endFill=0;" parent="1" source="sXxlykcyUaRIRWlkj6gS-99" target="sXxlykcyUaRIRWlkj6gS-103" edge="1">
          <mxGeometry relative="1" as="geometry">
            <Array as="points">
              <mxPoint x="-659" y="630" />
            </Array>
          </mxGeometry>
        </mxCell>
        <mxCell id="0Z8mvQobNW5vNAzwE-Vr-118" style="edgeStyle=orthogonalEdgeStyle;rounded=0;orthogonalLoop=1;jettySize=auto;html=1;entryX=0;entryY=0.354;entryDx=0;entryDy=0;entryPerimeter=0;endArrow=ERoneToMany;endFill=0;startArrow=ERmandOne;startFill=0;" parent="1" source="sXxlykcyUaRIRWlkj6gS-109" target="sXxlykcyUaRIRWlkj6gS-34" edge="1">
          <mxGeometry relative="1" as="geometry">
            <Array as="points">
              <mxPoint x="100" y="1040" />
              <mxPoint x="100" y="790" />
            </Array>
          </mxGeometry>
        </mxCell>
        <mxCell id="0Z8mvQobNW5vNAzwE-Vr-122" style="edgeStyle=orthogonalEdgeStyle;rounded=0;orthogonalLoop=1;jettySize=auto;html=1;entryX=0;entryY=0.25;entryDx=0;entryDy=0;endArrow=ERmandOne;endFill=0;startArrow=ERoneToMany;startFill=0;" parent="1" source="sXxlykcyUaRIRWlkj6gS-34" target="sXxlykcyUaRIRWlkj6gS-58" edge="1">
          <mxGeometry relative="1" as="geometry">
            <Array as="points">
              <mxPoint x="636" y="750" />
              <mxPoint x="636" y="615" />
            </Array>
          </mxGeometry>
        </mxCell>
        <mxCell id="0Z8mvQobNW5vNAzwE-Vr-133" style="edgeStyle=orthogonalEdgeStyle;rounded=0;orthogonalLoop=1;jettySize=auto;html=1;entryX=0.998;entryY=0.36;entryDx=0;entryDy=0;entryPerimeter=0;endArrow=ERoneToMany;endFill=0;startArrow=ERmandOne;startFill=0;" parent="1" source="sXxlykcyUaRIRWlkj6gS-95" target="sXxlykcyUaRIRWlkj6gS-99" edge="1">
          <mxGeometry relative="1" as="geometry" />
        </mxCell>
        <mxCell id="hljfWpp31FLam6ULAvDE-2" style="edgeStyle=orthogonalEdgeStyle;rounded=0;orthogonalLoop=1;jettySize=auto;html=1;entryX=0.5;entryY=0;entryDx=0;entryDy=0;endArrow=ERoneToMany;endFill=0;startArrow=ERmandOne;startFill=0;" edge="1" parent="1" source="sXxlykcyUaRIRWlkj6gS-34" target="sXxlykcyUaRIRWlkj6gS-76">
          <mxGeometry relative="1" as="geometry">
            <Array as="points">
              <mxPoint x="340" y="1057" />
              <mxPoint x="145" y="1057" />
            </Array>
          </mxGeometry>
        </mxCell>
      </root>
    </mxGraphModel>
  </diagram>
</mxfile>
